# xmcd CD database file
#
# Track frame offsets:
#	150
#	25097
#	42280
#
# Disc length: 751 seconds
#
# Revision: 0
# Processed by: cddbd v1.5.1PL2 Copyright (c) Steve Scherf et al.
# Submitted via: CDex 1.51
#
DISCID=1a02ed03
DTITLE=KinKi Kids - solitude 〜真実のサヨナラ〜
DYEAR=2002
DGENRE=J-Pop
TTITLE0=solitude 〜真実のサヨナラ〜
TTITLE1=太陽の扉
TTITLE2=５×９＝６３
EXTD=YEAR: 2002
EXTT0=
EXTT1=
EXTT2=
PLAYORDER=
